<?xml version="1.0" encoding="UTF-8"?>
<svg id="Layer_1" xmlns="http://www.w3.org/2000/svg" version="1.1" viewBox="0 0 1920 225.35">
  <!-- Generator: Adobe Illustrator 30.2.1, SVG Export Plug-In . SVG Version: 2.1.1 Build 1)  -->
  <defs>
    <style>
      .st0 {
        fill: none;
      }

      .st1 {
        fill: #000202;
      }

      .st2 {
        font-family: Impact, Impact;
        font-size: 231.2px;
      }
    </style>
  </defs>
  <text class="st2" transform="translate(354.22 193.47)"><tspan x="0" y="0" xml:space="preserve">G    alDigger</tspan></text>
  <g>
    <path class="st0" d="M562.67,55.02c-16.95,0-32.89,6.6-44.87,18.59-11.99,11.99-18.59,27.92-18.59,44.87s6.6,32.89,18.59,44.87c11.99,11.99,27.92,18.59,44.87,18.59s32.89-6.6,44.87-18.59c11.99-11.99,18.59-27.92,18.59-44.87s-6.6-32.89-18.59-44.87c-11.99-11.99-27.92-18.59-44.87-18.59ZM562.67,165.13c-25.72,0-46.65-20.93-46.65-46.65s20.93-46.65,46.65-46.65,46.65,20.93,46.65,46.65-20.93,46.65-46.65,46.65Z"/>
    <path class="st0" d="M562.67,88.64c-16.45,0-29.84,13.39-29.84,29.84s13.39,29.84,29.84,29.84,29.84-13.39,29.84-29.84-13.39-29.84-29.84-29.84ZM562.67,131.51c-7.18,0-13.03-5.84-13.03-13.03s5.84-13.03,13.03-13.03,13.03,5.84,13.03,13.03-5.84,13.03-13.03,13.03Z"/>
    <path class="st1" d="M562.67,38.21c-44.33,0-80.27,35.94-80.27,80.27s35.94,80.27,80.27,80.27,80.27-35.94,80.27-80.27-35.94-80.27-80.27-80.27ZM607.54,163.36c-11.99,11.99-27.92,18.59-44.87,18.59s-32.89-6.6-44.87-18.59c-11.99-11.99-18.59-27.92-18.59-44.87s6.6-32.89,18.59-44.87c11.99-11.99,27.92-18.59,44.87-18.59s32.89,6.6,44.87,18.59c11.99,11.99,18.59,27.92,18.59,44.87s-6.6,32.89-18.59,44.87Z"/>
    <path d="M562.67,71.83c-25.72,0-46.65,20.93-46.65,46.65s20.93,46.65,46.65,46.65,46.65-20.93,46.65-46.65-20.93-46.65-46.65-46.65ZM562.67,148.32c-16.45,0-29.84-13.39-29.84-29.84s13.39-29.84,29.84-29.84,29.84,13.39,29.84,29.84-13.39,29.84-29.84,29.84Z"/>
    <path d="M562.67,105.45c-7.18,0-13.03,5.84-13.03,13.03s5.84,13.03,13.03,13.03,13.03-5.84,13.03-13.03-5.84-13.03-13.03-13.03Z"/>
  </g>
</svg>